<?xml version="1.0" encoding="utf-8"?>
<!-- Generator: Adobe Illustrator 25.0.0, SVG Export Plug-In . SVG Version: 6.00 Build 0)  -->
<svg version="1.1" id="Layer_1" xmlns="http://www.w3.org/2000/svg" xmlns:xlink="http://www.w3.org/1999/xlink" x="0px" y="0px"
	 viewBox="0 0 24 24" style="enable-background:new 0 0 24 24;" xml:space="preserve">
<style type="text/css">
	.st0{fill:none;}
	.st1{fill:#FFFFFF;}
</style>
<g id="icon_-_contact" transform="translate(1.631 1.468)">
	<rect id="Rectangle_453" x="-5.7" y="-5.5" class="st0" width="29.8" height="30"/>
	<path id="Path_238" class="st1" d="M12.9-1.3H3.4C2.1-1.3,1.1-0.3,1,1v19c0,1.3,1.1,2.4,2.4,2.4h14.2c1.3,0,2.4-1.1,2.4-2.4V5.8
		L12.9-1.3z M10.5,8.2c1.3,0,2.4,1.1,2.4,2.4c0,1.3-1.1,2.4-2.4,2.4s-2.4-1.1-2.4-2.4l0,0C8.1,9.2,9.2,8.2,10.5,8.2L10.5,8.2z
		 M15.2,17.7H5.8V17c0-1,0.6-1.8,1.4-2.2c2.1-0.9,4.5-0.9,6.6,0c0.9,0.4,1.4,1.2,1.4,2.2L15.2,17.7z"/>
</g>
</svg>
