<svg xmlns="http://www.w3.org/2000/svg" width="23.611" height="23.611" viewBox="0 0 23.611 23.611">
  <path id="Path_3" data-name="Path 3" d="M11.806,2.1a36.2,36.2,0,0,1,4.722.131,6.084,6.084,0,0,1,2.23.394,4.607,4.607,0,0,1,2.23,2.23,6.084,6.084,0,0,1,.394,2.23c0,1.181.131,1.574.131,4.722a36.2,36.2,0,0,1-.131,4.722,6.084,6.084,0,0,1-.394,2.23,4.607,4.607,0,0,1-2.23,2.23,6.084,6.084,0,0,1-2.23.394c-1.181,0-1.574.131-4.722.131a36.2,36.2,0,0,1-4.722-.131,6.084,6.084,0,0,1-2.23-.394,4.607,4.607,0,0,1-2.23-2.23,6.084,6.084,0,0,1-.394-2.23c0-1.181-.131-1.574-.131-4.722A36.2,36.2,0,0,1,2.23,7.083a6.084,6.084,0,0,1,.394-2.23,4.711,4.711,0,0,1,.918-1.312,2.218,2.218,0,0,1,1.312-.918,6.084,6.084,0,0,1,2.23-.394A36.2,36.2,0,0,1,11.806,2.1m0-2.1A38.758,38.758,0,0,0,6.952.131,8.1,8.1,0,0,0,4.066.656a5.135,5.135,0,0,0-2.1,1.312,5.135,5.135,0,0,0-1.312,2.1A5.977,5.977,0,0,0,.131,6.952,38.758,38.758,0,0,0,0,11.806a38.758,38.758,0,0,0,.131,4.853,8.1,8.1,0,0,0,.525,2.886,5.135,5.135,0,0,0,1.312,2.1,5.135,5.135,0,0,0,2.1,1.312,8.1,8.1,0,0,0,2.886.525,38.758,38.758,0,0,0,4.853.131,38.758,38.758,0,0,0,4.853-.131,8.1,8.1,0,0,0,2.886-.525,5.5,5.5,0,0,0,3.41-3.41,8.1,8.1,0,0,0,.525-2.886c0-1.312.131-1.705.131-4.853a38.758,38.758,0,0,0-.131-4.853,8.1,8.1,0,0,0-.525-2.886,5.135,5.135,0,0,0-1.312-2.1,5.135,5.135,0,0,0-2.1-1.312A8.1,8.1,0,0,0,16.659.131,38.758,38.758,0,0,0,11.806,0m0,5.772a5.937,5.937,0,0,0-6.034,6.034,6.034,6.034,0,1,0,6.034-6.034m0,9.969A3.865,3.865,0,0,1,7.87,11.806,3.865,3.865,0,0,1,11.806,7.87a3.865,3.865,0,0,1,3.935,3.935,3.865,3.865,0,0,1-3.935,3.935M18.1,4.066a1.443,1.443,0,1,0,1.443,1.443A1.456,1.456,0,0,0,18.1,4.066" fill="#383838" fill-rule="evenodd"/>
</svg>
