<svg xmlns="http://www.w3.org/2000/svg" width="357.38" height="330.831" viewBox="0 0 357.38 330.831">
  <g id="Logo-Maynooth-Option2" transform="translate(-6.942 -10.081)">
    <g id="Group_2" data-name="Group 2" transform="translate(15.069 301.487)">
      <path id="Path_14" data-name="Path 14" d="M11.39,82.16a1.52,1.52,0,0,1,1.66-1.66h2.49a2.282,2.282,0,0,1,2.075,1.245l8.3,19.09c.83,2.075,2.075,4.98,2.075,4.98h0s.83-2.9,1.66-4.98l8.3-19.09A1.917,1.917,0,0,1,40.025,80.5h2.49c1.245,0,1.66.415,1.66,1.66l2.9,34.859c0,1.245-.415,1.66-1.66,1.66h-1.66c-1.245,0-1.66-.415-1.66-1.66L40.44,94.61a24.407,24.407,0,0,1,0-5.81h0s-1.245,3.32-2.075,5.81L31.31,110.38a2.958,2.958,0,0,1-2.49,1.245H27.16a2.282,2.282,0,0,1-2.075-1.245L18.03,94.61c-.83-2.075-2.075-5.81-2.075-5.81h0v5.81l-1.66,22.41a1.52,1.52,0,0,1-1.66,1.66H10.56a1.52,1.52,0,0,1-1.66-1.66Z" transform="translate(-8.9 -79.67)"/>
      <path id="Path_15" data-name="Path 15" d="M32.147,82.06c.415-.83.83-1.66,2.075-1.66h2.49a2.118,2.118,0,0,1,2.075,1.66l12.45,34.859c.415,1.245,0,2.075-1.66,2.075h-1.66a2.118,2.118,0,0,1-2.075-1.66l-3.32-9.545H28l-3.32,9.545c-.415.83-.83,1.66-2.075,1.66h-1.66c-1.245,0-2.075-.83-1.66-2.075Zm9.13,21.165L37.127,91.19a52.972,52.972,0,0,1-1.66-5.395h0a52.973,52.973,0,0,1-1.66,5.395l-4.15,12.035Z" transform="translate(23.462 -79.985)"/>
      <path id="Path_16" data-name="Path 16" d="M38.673,102.495l-11.62-19.92c-.83-1.245,0-2.075,1.245-2.075h2.075a2.282,2.282,0,0,1,2.075,1.245l6.225,11.2a49.842,49.842,0,0,1,2.49,4.98h0l2.49-4.98,6.225-11.2A2.282,2.282,0,0,1,51.953,80.5h2.075c1.245,0,2.075.83,1.245,2.075l-11.62,19.92v14.525a1.52,1.52,0,0,1-1.66,1.66h-1.66c-1.245,0-1.66-.415-1.66-1.66Z" transform="translate(47.23 -79.67)"/>
      <path id="Path_17" data-name="Path 17" d="M35.1,82.16c0-1.245.415-1.66,1.66-1.66h2.075a2.282,2.282,0,0,1,2.075,1.245L57.095,105.4c1.245,2.075,3.32,5.395,3.32,5.395h0S60,107.475,60,105.4V82.16a1.52,1.52,0,0,1,1.66-1.66h2.075c1.245,0,1.66.415,1.66,1.66V116.6c0,1.245-.415,1.66-1.66,1.66H61.66a2.282,2.282,0,0,1-2.075-1.245L43.4,93.365c-1.245-2.075-3.32-5.395-3.32-5.395h0s.415,3.32.415,5.395v22.825c0,1.245-.415,1.66-1.66,1.66h-1.66c-1.245,0-1.66-.415-1.66-1.66V82.16Z" transform="translate(73.628 -79.67)"/>
      <path id="Path_18" data-name="Path 18" d="M63.816,80.3c11.2,0,19.5,8.3,19.5,19.5s-8.3,19.92-19.5,19.92-19.5-8.715-19.5-19.92C43.9,88.6,52.2,80.3,63.816,80.3Zm0,34.444c8.3,0,14.11-6.64,14.11-14.94S72.116,85.28,63.816,85.28,49.706,91.5,49.706,99.8,55.516,114.744,63.816,114.744Z" transform="translate(102.596 -80.3)"/>
      <path id="Path_19" data-name="Path 19" d="M74.4,80.3c11.2,0,19.5,8.3,19.5,19.5s-8.3,19.92-19.5,19.92S54.9,111.01,54.9,99.8,62.785,80.3,74.4,80.3Zm0,34.444c8.3,0,14.11-6.64,14.11-14.94S82.7,85.28,74.4,85.28,60.295,91.5,60.295,99.8,66.1,114.744,74.4,114.744Z" transform="translate(135.997 -80.3)"/>
      <path id="Path_20" data-name="Path 20" d="M77.365,85.065H66.16A1.52,1.52,0,0,1,64.5,83.4V82.16c0-1.245.415-1.66,1.66-1.66H94.38c1.245,0,1.66.415,1.66,1.66V83.4c0,1.245-.415,1.66-1.66,1.66h-11.2V116.6a1.52,1.52,0,0,1-1.66,1.66h-2.49c-1.245,0-1.66-.415-1.66-1.66Z" transform="translate(166.236 -79.67)"/>
      <path id="Path_21" data-name="Path 21" d="M73.2,82.16c0-1.245.415-1.66,1.66-1.66h1.66c1.245,0,1.66.415,1.66,1.66V97.1H98.1V82.16a1.52,1.52,0,0,1,1.66-1.66h1.66c1.245,0,1.66.415,1.66,1.66V116.6c0,1.245-.415,1.66-1.66,1.66H99.76c-1.245,0-1.66-.415-1.66-1.66v-14.94H78.18V116.6c0,1.245-.415,1.66-1.66,1.66H74.86c-1.245,0-1.66-.415-1.66-1.66Z" transform="translate(193.641 -79.67)"/>
    </g>
    <path id="Path_22" data-name="Path 22" d="M97.685,255.423h0a37.783,37.783,0,0,1-43.159-30.71L25.476,53.736a37.783,37.783,0,0,1,30.71-43.159h0a37.783,37.783,0,0,1,43.159,30.71l29.05,170.977A37.342,37.342,0,0,1,97.685,255.423Z" transform="translate(56.822 0)" fill="#cc4c6e"/>
    <path id="Path_23" data-name="Path 23" d="M122.685,255.423h0a37.783,37.783,0,0,1-43.159-30.71L50.476,53.736a37.783,37.783,0,0,1,30.71-43.159h0a37.783,37.783,0,0,1,43.159,30.71l29.05,170.977A37.342,37.342,0,0,1,122.685,255.423Z" transform="translate(135.57 0)" fill="#cc4c6e"/>
    <path id="Path_24" data-name="Path 24" d="M29.179,252.74h0a37.611,37.611,0,0,1-19.09-49.384L85.2,32.379a37.611,37.611,0,0,1,49.384-19.09h0a37.611,37.611,0,0,1,19.09,49.384L78.148,233.651A36.931,36.931,0,0,1,29.179,252.74Z" transform="translate(0 0.192)" fill="#f3b541"/>
    <path id="Path_25" data-name="Path 25" d="M54.179,252.74h0a37.611,37.611,0,0,1-19.09-49.384L110.2,32.379a37.611,37.611,0,0,1,49.384-19.09h0a37.611,37.611,0,0,1,19.09,49.384L103.148,233.651A36.931,36.931,0,0,1,54.179,252.74Z" transform="translate(78.748 0.192)" fill="#4cb3aa"/>
    <path id="Path_26" data-name="Path 26" d="M79.179,252.74h0a37.611,37.611,0,0,1-19.09-49.384L135.2,32.379a37.611,37.611,0,0,1,49.384-19.09h0a37.611,37.611,0,0,1,19.09,49.384L128.563,233.651C120.263,252.74,98.269,261.04,79.179,252.74Z" transform="translate(157.497 0.192)" fill="#842c68"/>
  </g>
</svg>
