<svg xmlns="http://www.w3.org/2000/svg" width="171.073" height="33.729" viewBox="0 0 171.073 33.729">
  <g id="Logo-Maynooth-Option1" transform="translate(-0.042 0.02)">
    <path id="Path_1" data-name="Path 1" d="M28.056,33.642h0a5.184,5.184,0,0,1-5.921-4.213L18.149,5.97A5.184,5.184,0,0,1,22.362.049h0a5.184,5.184,0,0,1,5.921,4.213L32.269,27.72A5.184,5.184,0,0,1,28.056,33.642Z" transform="translate(-7.768 0)" fill="#cc4c6e"/>
    <path id="Path_2" data-name="Path 2" d="M53.143,33.642h0a5.184,5.184,0,0,1-5.921-4.213L43.236,5.97A5.1,5.1,0,0,1,47.393.049h0a5.184,5.184,0,0,1,5.921,4.213L57.3,27.72A5.1,5.1,0,0,1,53.143,33.642Z" transform="translate(-18.564 0)" fill="#cc4c6e"/>
    <path id="Path_3" data-name="Path 3" d="M3.093,33.269h0A5.16,5.16,0,0,1,.473,26.494l10.306-23.4A5.16,5.16,0,0,1,17.555.473h0a5.16,5.16,0,0,1,2.619,6.776L9.811,30.65A5.067,5.067,0,0,1,3.093,33.269Z" transform="translate(0 -0.026)" fill="#f3b541"/>
    <path id="Path_4" data-name="Path 4" d="M28.093,33.269h0a5.16,5.16,0,0,1-2.619-6.776l10.306-23.4A5.16,5.16,0,0,1,42.555.473h0a5.16,5.16,0,0,1,2.619,6.776L34.868,30.65A5.149,5.149,0,0,1,28.093,33.269Z" transform="translate(-10.766 -0.026)" fill="#4cb3aa"/>
    <path id="Path_5" data-name="Path 5" d="M53.093,33.269h0a5.16,5.16,0,0,1-2.619-6.776l10.363-23.4A5.16,5.16,0,0,1,67.612.473h0a5.16,5.16,0,0,1,2.619,6.776L59.868,30.65A5.112,5.112,0,0,1,53.093,33.269Z" transform="translate(-21.531 -0.026)" fill="#842c68"/>
    <g id="Group_1" data-name="Group 1" transform="translate(56.614 9.956)">
      <path id="Path_6" data-name="Path 6" d="M100.539,18.242a.328.328,0,0,1,.342-.342h.228c.228,0,.342.057.4.285l4.213,9.053c.342.74.74,1.651.74,1.651h.057s.4-.968.74-1.651l4.213-9.053a.428.428,0,0,1,.4-.285h.228a.3.3,0,0,1,.342.342l1.139,14.12c0,.228-.114.4-.342.4h-.171a.3.3,0,0,1-.342-.342l-.911-10.989c-.057-.74-.057-1.993-.057-1.993H111.7s-.4,1.253-.74,1.993l-3.815,8.2a.428.428,0,0,1-.4.285H106.4c-.228,0-.342-.057-.4-.285l-3.815-8.2c-.342-.683-.8-1.993-.8-1.993h-.057s0,1.31-.057,1.993l-.968,11.046a.328.328,0,0,1-.342.342h-.228c-.228,0-.342-.114-.342-.4Z" transform="translate(-99.4 -17.672)" fill="#fff"/>
      <path id="Path_7" data-name="Path 7" d="M133.462,18.285a.364.364,0,0,1,.4-.285h.4a.364.364,0,0,1,.4.285l5.3,14.12c.057.228,0,.4-.285.4h-.228a.364.364,0,0,1-.4-.285l-1.879-4.84H130.9l-1.822,4.84a.364.364,0,0,1-.4.285h-.228c-.285,0-.4-.171-.285-.4Zm3.416,8.541L134.6,20.79c-.228-.626-.569-1.765-.569-1.765h-.057s-.342,1.139-.569,1.765l-2.277,6.035Z" transform="translate(-111.769 -17.715)" fill="#fff"/>
      <path id="Path_8" data-name="Path 8" d="M153.722,26.37,148.939,18.4c-.171-.228-.057-.4.228-.4h.228a.381.381,0,0,1,.4.228l3.359,5.637c.4.74.911,1.651.911,1.651h.057a15.431,15.431,0,0,1,.911-1.651l3.359-5.637a.43.43,0,0,1,.4-.228h.228c.285,0,.4.171.228.4l-4.783,7.971v6.092a.3.3,0,0,1-.342.342h-.057a.3.3,0,0,1-.342-.342Z" transform="translate(-120.698 -17.715)" fill="#fff"/>
      <path id="Path_9" data-name="Path 9" d="M172.2,18.342a.3.3,0,0,1,.342-.342h.228a.518.518,0,0,1,.456.228l8.313,11.444c.512.683,1.2,1.879,1.2,1.879h.057s-.114-1.139-.114-1.879V18.342a.3.3,0,0,1,.342-.342h.171a.3.3,0,0,1,.342.342v14.12a.3.3,0,0,1-.342.342h-.228a.518.518,0,0,1-.456-.228l-8.313-11.444c-.512-.683-1.2-1.879-1.2-1.879h-.057s.114,1.139.114,1.879V32.405a.3.3,0,0,1-.342.342h-.171a.3.3,0,0,1-.342-.342Z" transform="translate(-130.75 -17.715)" fill="#fff"/>
      <path id="Path_10" data-name="Path 10" d="M205.616,17.5a7.415,7.415,0,0,1,7.516,7.573,7.521,7.521,0,1,1-15.031,0A7.415,7.415,0,0,1,205.616,17.5Zm0,14.519a6.611,6.611,0,0,0,6.548-6.946,6.55,6.55,0,1,0-13.1,0A6.611,6.611,0,0,0,205.616,32.019Z" transform="translate(-141.903 -17.5)" fill="#fff"/>
      <path id="Path_11" data-name="Path 11" d="M236.116,17.5a7.415,7.415,0,0,1,7.516,7.573,7.521,7.521,0,1,1-15.031,0A7.415,7.415,0,0,1,236.116,17.5Zm0,14.519a6.611,6.611,0,0,0,6.548-6.946,6.55,6.55,0,1,0-13.1,0A6.611,6.611,0,0,0,236.116,32.019Z" transform="translate(-155.037 -17.5)" fill="#fff"/>
      <path id="Path_12" data-name="Path 12" d="M261.223,18.8h-5.181a.3.3,0,0,1-.342-.342v-.114a.3.3,0,0,1,.342-.342h11.274a.3.3,0,0,1,.342.342v.114a.3.3,0,0,1-.342.342h-5.181V32.462a.3.3,0,0,1-.342.342h-.228a.3.3,0,0,1-.342-.342Z" transform="translate(-166.707 -17.715)" fill="#fff"/>
      <path id="Path_13" data-name="Path 13" d="M280.8,18.342a.3.3,0,0,1,.342-.342h.171a.3.3,0,0,1,.342.342v6.6h9.509v-6.6A.3.3,0,0,1,291.5,18h.171a.3.3,0,0,1,.342.342v14.12a.3.3,0,0,1-.342.342H291.5a.3.3,0,0,1-.342-.342V25.8h-9.452v6.662a.3.3,0,0,1-.342.342H281.2a.3.3,0,0,1-.342-.342V18.342Z" transform="translate(-177.515 -17.715)" fill="#fff"/>
    </g>
  </g>
</svg>
