<svg xmlns="http://www.w3.org/2000/svg" width="27.648" height="22.425" viewBox="0 0 27.648 22.425">
  <path id="Path_2" data-name="Path 2" d="M46.755,24.425c10.445,0,16.128-8.6,16.128-16.128V7.53a12.486,12.486,0,0,0,2.765-2.918,12.751,12.751,0,0,1-3.226.922A5.976,5.976,0,0,0,64.88,2.461a14.088,14.088,0,0,1-3.533,1.382A5.485,5.485,0,0,0,57.2,2a5.771,5.771,0,0,0-5.683,5.683,2.994,2.994,0,0,0,.154,1.229A15.88,15.88,0,0,1,40,2.922a5.882,5.882,0,0,0-.768,2.918A6.1,6.1,0,0,0,41.686,10.6a5.178,5.178,0,0,1-2.611-.768h0a5.613,5.613,0,0,0,4.608,5.53,4.735,4.735,0,0,1-1.536.154,2.614,2.614,0,0,1-1.075-.154,5.819,5.819,0,0,0,5.376,3.994,11.6,11.6,0,0,1-7.066,2.458A4.252,4.252,0,0,1,38,21.661a14.5,14.5,0,0,0,8.755,2.765" transform="translate(-38 -2)" fill="#383838" fill-rule="evenodd"/>
</svg>
